# xmcd
#
# Track frame offsets:
#	150
#	20637
#	35522
#	48397
#	61972
#	78035
#	89030
#	102647
#	115200
#	126902
#	142215
#	151975
#	164105
#	175737
#
# Disc length: 2529
#
# Revision: 1
# Processed by: cddbd v1.5.1PL0 Copyright (c) Steve Scherf et al.
# Submitted via: CDex 1.50beta10
# Normalized: r0:TDELIM( - )
#
DISCID=c709df0e
DTITLE=Various Artist - A Touch Of Country
DYEAR=1900
DGENRE=Country
TTITLE0=Steve Earls - Copperhead Road
TTITLE1=Jeannie C Riley - Harper Valley PTA
TTITLE2=Kenny Dale - Shame,Shame On Me
TTITLE3=Kenny Rogers - Ruby Don't Take Your Love To Town
TTITLE4=Nanci Griffiths - Late Night Grand Hotel
TTITLE5=Sandy Posey - Single Girl
TTITLE6=Lynn Anderson - Rose Garden
TTITLE7=Faron Young - It's Four In The Morning
TTITLE8=Patsy Cline - Sweet Dreams
TTITLE9=Don Williams - I Recall A Gypsy Woman
TTITLE10=Ned Miller - From A Jack To A King
TTITLE11=Frankie Laine - High Noon
TTITLE12=Brenda Lee - As Usual
TTITLE13=Billie Holiday - Good Morning Heartaches
EXTD=
EXTT0=
EXTT1=
EXTT2=
EXTT3=
EXTT4=
EXTT5=
EXTT6=
EXTT7=
EXTT8=
EXTT9=
EXTT10=
EXTT11=
EXTT12=
EXTT13=
PLAYORDER=
